<?xml version="1.0" encoding="UTF-8"?>
<svg width="397px" height="90px" viewBox="0 0 397 90" version="1.1" xmlns="http://www.w3.org/2000/svg" xmlns:xlink="http://www.w3.org/1999/xlink">
    <title>Tapmoc</title>
    <g id="Page-1" stroke="none" stroke-width="1" fill="none" fill-rule="evenodd">
        <path d="M18.0923077,72 C18.3794872,71.929099 18.6307692,71.8936484 18.8461538,71.8936484 L18.8461538,71.8936484 L24.2307692,71.1491876 C26.3128205,70.8655835 28.7179487,70.7237814 31.4461538,70.7237814 C33.9589744,70.7237814 36.2205128,70.8655835 38.2307692,71.1491876 L38.2307692,71.1491876 L43.5076923,71.8936484 C43.6512821,71.8936484 43.9025641,71.929099 44.2615385,72 L44.2615385,72 L44.9076923,72 C48.1384615,72 49.7538462,70.7592319 49.7538462,68.2776957 C49.7538462,67.3559823 49.4128205,66.5583456 48.7307692,65.8847858 C48.0487179,65.211226 47.2410256,64.8744461 46.3076923,64.8744461 C45.7333333,64.8744461 44.8717949,64.9630724 43.7230769,65.140325 C42.574359,65.3175775 41.7128205,65.4062038 41.1384615,65.4062038 C37.4769231,65.4062038 35.6461538,62.7474151 35.6461538,57.4298375 L35.6461538,57.4298375 L35.7538462,21.2703102 L36.0769231,13.8257016 C36.2205128,11.2732644 36.8666667,9.44756278 38.0153846,8.34859675 C39.1641026,7.24963072 41.0666667,6.70014771 43.7230769,6.70014771 L43.7230769,6.70014771 L46.7384615,6.70014771 C52.4102564,6.70014771 55.2461538,9.14623338 55.2461538,14.0384047 C55.2461538,15.3146233 55.1384615,17.211226 54.9230769,19.7282127 C54.7076923,22.2451994 54.6,24.1418021 54.6,25.4180207 C54.6,28.9630724 55.9641026,30.7355982 58.6923077,30.7355982 C61.4923077,30.7355982 62.8923077,29.282127 62.8923077,26.3751846 C62.8923077,25.6661743 62.7487179,23.8227474 62.4615385,20.844904 C62.2461538,18.5760709 62.1384615,16.9098966 62.1384615,15.8463811 L62.1384615,15.8463811 L62.1384615,14.676514 C62.3538462,12.478582 62.5512821,10.422452 62.7307692,8.50812408 C62.9102564,6.59379616 63,5.28212703 63,4.57311669 L63,4.57311669 L63,4.36041359 C63,1.4534712 61.2051282,0 57.6153846,0 C55.9641026,0 53.6666667,0.106351551 50.7230769,0.319054653 C47.4205128,0.531757755 45.0871795,0.638109306 43.7230769,0.638109306 C38.134413,0.76498484 34.471184,0.835100267 32.7333902,0.848455587 L32.2,0.850812408 L19.9230769,0.638109306 C14.3948718,0.496307238 11.4512821,0.425406204 11.0923077,0.425406204 C7.43076923,0.212703102 5.0974359,0.106351551 4.09230769,0.106351551 C1.36410256,0.106351551 0,1.59527326 0,4.57311669 L0.00531813865,4.46413918 C0.0194998417,4.42562503 0.0620449509,4.81426774 0.132953466,5.63006729 L0.191452991,6.32200886 C0.255270655,7.09404234 0.335042735,8.10635155 0.430769231,9.35893648 C0.574358974,11.2732644 0.646153846,13.1166913 0.646153846,14.8892171 C0.646153846,15.8109306 0.538461538,17.9734121 0.323076923,21.3766617 C0.179487179,23.6454948 0.107692308,25.2407681 0.107692308,26.1624815 C0.107692308,29.4239291 1.43589744,31.0546529 4.09230769,31.0546529 C6.89230769,31.0546529 8.29230769,28.8212703 8.29230769,24.3545052 C8.29230769,23.2200886 8.25641026,22.3338257 8.18461538,21.6957164 L8.18461538,21.6957164 L7.75384615,17.760709 C7.68205128,17.1225997 7.64615385,15.9172821 7.64615385,14.1447563 C7.64615385,9.1816839 10.2307692,6.70014771 15.4,6.70014771 L15.4,6.70014771 L18.7384615,6.70014771 C23.9794872,6.70014771 26.6,9.21713442 26.6,14.2511078 L26.6,14.2511078 L26.7076923,31.5864106 L26.7076923,40.6262925 L26.6,49.985229 L26.6,57.4298375 C26.6,62.7474151 24.8051282,65.4062038 21.2153846,65.4062038 C20.6410256,65.4062038 19.7794872,65.3175775 18.6307692,65.140325 C17.4820513,64.9630724 16.6205128,64.8744461 16.0461538,64.8744461 C13.7487179,64.8744461 12.6,66.0088626 12.6,68.2776957 C12.6,70.7592319 14.1794872,72 17.3384615,72 L17.3384615,72 L18.0923077,72 Z M86.0479705,73 C93.8241082,73 99.5313653,70.3314607 103.169742,64.994382 C104.525215,70.0468165 108.127921,72.5730337 113.97786,72.5730337 C121.111931,72.5730337 124.750308,69.1573034 124.892989,62.3258427 L124.892989,62.3258427 L125,56.241573 L125,55.7078652 C125,52.2921348 123.822878,50.5842697 121.468635,50.5842697 C119.257073,50.5842697 118.151292,51.7228464 118.151292,54 L118.151292,54 L118.151292,59.2303371 C118.151292,63.7846442 116.902829,66.0617978 114.405904,66.0617978 C112.408364,66.0617978 111.195572,64.8164794 110.767528,62.3258427 C110.624846,61.6853933 110.553506,59.6573034 110.553506,56.241573 L110.553506,34.6797753 C110.553506,22.2265918 104.061501,16 91.0774908,16 C85.4415744,16 80.6439114,17.423221 76.6845018,20.2696629 C72.7250923,23.1161049 70.7453875,26.5318352 70.7453875,30.5168539 C70.7453875,32.3670412 71.3696187,33.9325843 72.6180812,35.2134831 C73.8665437,36.494382 75.4182042,37.1348315 77.2730627,37.1348315 C78.8425584,37.1348315 80.1445264,36.6722846 81.1789668,35.747191 C82.2134071,34.8220974 82.7306273,33.6479401 82.7306273,32.2247191 C82.7306273,30.5168539 82.2312423,29.3071161 81.2324723,28.5955056 C80.5904059,28.1685393 80.2693727,27.8127341 80.2693727,27.5280899 C80.2693727,26.7453184 80.804428,25.9981273 81.8745387,25.2865169 C84.6568266,23.5074906 87.6531365,22.6179775 90.8634686,22.6179775 C94.501845,22.6179775 97.3376384,23.4541199 99.3708487,25.1264045 C101.404059,26.7986891 102.420664,29.093633 102.420664,32.011236 C102.420664,35.071161 101.51107,37.170412 99.6918819,38.3089888 C97.8726937,39.4475655 93.9667897,40.3370787 87.9741697,40.9775281 C83.7650677,41.4756554 80.9649446,41.8848315 79.5738007,42.2050562 C78.1826568,42.5252809 76.5239852,43.2191011 74.597786,44.2865169 C69.5325953,47.0617978 67,51.4026217 67,57.3089888 C67,62.076779 68.7300123,65.8838951 72.1900369,68.7303371 C75.6500615,71.576779 80.2693727,73 86.0479705,73 Z M87.1048387,66 C83.6935484,66 80.9899194,65.224359 78.9939516,63.6730769 C76.9979839,62.1217949 76,60.0064103 76,57.3269231 C76,52.1794872 80.1370968,49.2179487 88.4112903,48.4423077 C92.983871,48.0192308 96.1592742,47.525641 97.9375,46.9615385 C99.7157258,46.3974359 101.403226,45.4102564 103,44 L103,44 L102.891129,51.5096154 C102.818548,56.0224359 101.385081,59.5657051 98.5907258,62.1394231 C95.796371,64.713141 91.9677419,66 87.1048387,66 Z M151.139241,90 C154.126582,90 155.620253,88.8304598 155.620253,86.4913793 C155.620253,84.1522989 154.482218,82.9827586 152.206148,82.9827586 C151.708258,82.9827586 150.961423,83.0890805 149.965642,83.3017241 C148.969861,83.5143678 148.223026,83.6206897 147.725136,83.6206897 C146.08921,83.6206897 145.057866,82.5220307 144.631103,80.3247126 C144.488849,79.5450192 144.417722,77.8084291 144.417722,75.1149425 L144.417722,66.2902299 C148.25859,70.6139847 153.273056,72.7758621 159.461121,72.7758621 C166.929476,72.7758621 172.886377,70.1000958 177.331826,64.7485632 C181.777275,59.3970307 184,52.2203065 184,43.2183908 C184,34.8544061 181.901748,28.2270115 177.705244,23.3362069 C173.50874,18.4454023 167.854129,16 160.74141,16 C153.842074,16 148.400844,18.7643678 144.417722,24.2931034 L144.417722,24.2931034 L144.417722,20.8908046 C144.417722,18.9061303 143.528632,17.9137931 141.750452,17.9137931 C141.181435,17.9137931 140.292345,17.966954 139.083183,18.0732759 C137.87402,18.1795977 136.949367,18.2327586 136.309222,18.2327586 C135.455696,18.2327586 134.139843,18.1618774 132.361664,18.0201149 C131.43701,17.9492337 130.583484,17.9137931 129.801085,17.9137931 C126.671489,17.9137931 125.106691,19.0478927 125.106691,21.316092 C125.106691,23.6551724 126.422544,24.8247126 129.05425,24.8247126 C129.623267,24.8247126 130.423448,24.7006705 131.454792,24.4525862 C132.486136,24.2045019 133.250753,24.0804598 133.748644,24.0804598 C135.526823,24.0804598 136.451477,25.710728 136.522604,28.9712644 L136.522604,28.9712644 L136.415913,70.0114943 C136.344786,76.3199234 136.149186,80.1652299 135.829114,81.5474138 C135.509042,82.9295977 134.673297,83.6206897 133.321881,83.6206897 C132.752863,83.6206897 131.863773,83.4789272 130.654611,83.1954023 C129.729958,82.9827586 129.05425,82.8764368 128.627486,82.8764368 C126.209162,82.8764368 125,84.0105364 125,86.2787356 C125,87.2710728 125.426763,88.1393678 126.280289,88.8836207 C127.133816,89.6278736 128.16516,90 129.374322,90 C130.298975,90 132.183846,89.8227969 135.028933,89.4683908 C136.166968,89.3266284 137.589512,89.2557471 139.296564,89.2557471 C142.42616,89.2557471 144.773357,89.362069 146.338156,89.5747126 C148.471971,89.8582375 150.072333,90 151.139241,90 Z M159.632867,66 C156.164336,66 153.255828,65.1442786 150.907343,63.4328358 C148.558858,61.721393 146.987179,59.7781924 146.192308,57.6032338 C145.397436,55.4282753 145,51.9519071 145,47.1741294 L145,47.1741294 L145,45.6766169 C145.072261,44.8922056 145.108392,44.3573798 145.108392,44.0721393 C145.180653,40.0787728 145.541958,36.6915423 146.192308,33.9104478 C146.914918,30.7728027 148.631119,28.1699834 151.340909,26.10199 C154.050699,24.0339967 157.13986,23 160.608392,23 C170.869464,23 176,30.1310116 176,44.3930348 C176,51.3101161 174.572844,56.6405473 171.718531,60.3843284 C168.864219,64.1281095 164.835664,66 159.632867,66 Z M194.302964,72 C194.948408,72 196.813026,71.8566859 199.896817,71.5700576 C202.191731,71.3550864 203.769484,71.2476008 204.630077,71.2476008 C206.351262,71.2476008 208.431028,71.3909149 210.869374,71.6775432 C212.662276,71.8925144 214.168313,72 215.387486,72 C218.614709,72 220.228321,70.8534869 220.228321,68.5604607 C220.228321,66.1957774 218.829857,65.0134357 216.032931,65.0134357 L216.032931,65.0134357 L215.279912,65.0134357 C214.993048,65.0850928 214.7779,65.1209213 214.634468,65.1209213 C213.487011,65.4075496 212.733992,65.5508637 212.375412,65.5508637 C211.084523,65.5508637 210.295646,64.3326935 210.008782,61.8963532 C209.948099,61.4719228 209.913089,60.2009639 209.903754,58.0834762 L209.901207,42.5489443 C209.901207,35.5982086 210.94109,30.7255278 213.020856,27.9309021 C215.530918,24.4913628 219.15258,22.7715931 223.88584,22.7715931 C228.188804,22.7715931 231.182949,23.9897633 232.868277,26.4261036 C234.553604,28.862444 235.396268,33.1976967 235.396268,39.4318618 L235.396268,39.4318618 L235.396268,48.353167 C235.396268,48.4248241 235.36041,49.1055662 235.288694,50.3953935 C235.288694,51.9001919 235.252836,53.4408189 235.18112,55.0172745 L235.18112,55.0172745 L235.073546,60.0690979 C235.001829,63.7236084 234.105379,65.5508637 232.384193,65.5508637 C231.882181,65.5508637 231.129162,65.4433781 230.125137,65.2284069 C229.694841,65.0850928 229.085254,65.0134357 228.296378,65.0134357 C226.144896,65.0134357 225.069155,66.1241203 225.069155,68.3454894 C225.069155,70.7818298 226.539334,72 229.479693,72 C230.842298,72 232.420051,71.8566859 234.212953,71.5700576 C236.005854,71.2834293 237.655324,71.1401152 239.161361,71.1401152 C240.237102,71.1401152 241.832784,71.2834293 243.948408,71.5700576 C246.064032,71.8566859 247.659715,72 248.735456,72 C252.106111,72 253.791438,70.8176583 253.791438,68.452975 C253.791438,67.4497761 253.450787,66.6078055 252.769484,65.9270633 C252.088181,65.2463212 251.245518,64.9059501 250.241493,64.9059501 C249.811196,64.9059501 249.183681,64.9955214 248.358946,65.1746641 C247.534211,65.3538068 246.906696,65.4433781 246.4764,65.4433781 C245.113794,65.4433781 244.271131,64.6014075 243.948408,62.9174664 C243.625686,61.2335253 243.464325,57.0236724 243.464325,50.2879079 L243.464325,42.6564299 C243.464325,35.7056942 244.253202,30.8330134 245.830955,28.0383877 C247.839005,24.5271913 251.38895,22.7715931 256.48079,22.7715931 C259.134285,22.7715931 261.500915,23.4165067 263.580681,24.706334 C265.660446,25.9961612 267.076839,27.7696737 267.829857,30.0268714 C268.582876,32.2840691 268.959385,35.8848369 268.959385,40.8291747 L268.959385,40.8291747 L268.959385,47.9232246 L268.851811,54.4798464 C268.780095,59.3525272 268.582876,62.3979527 268.260154,63.6161228 C267.937431,64.834293 267.166484,65.4433781 265.947311,65.4433781 C265.23015,65.4433781 264.656422,65.371721 264.226125,65.2284069 C263.078668,65.0850928 262.361508,65.0134357 262.074643,65.0134357 C259.779729,65.0134357 258.632272,66.0882917 258.632272,68.2380038 C258.632272,70.7460013 260.13831,72 263.150384,72 C264.369557,72 266.14453,71.8746001 268.475302,71.6238004 L269.323288,71.5356286 C271.241133,71.34361 272.733443,71.2476008 273.80022,71.2476008 C274.947677,71.2476008 276.615075,71.3730006 278.802415,71.6238004 C280.989755,71.8746001 282.621295,72 283.697036,72 C286.565679,72 288,70.7460013 288,68.2380038 C288,66.0882917 286.744969,65.0134357 284.234907,65.0134357 C283.732894,65.0134357 282.979876,65.1209213 281.975851,65.3358925 C280.971826,65.5508637 280.218807,65.6583493 279.716795,65.6583493 C278.210757,65.6583493 277.278449,64.3685221 276.919868,61.7888676 C276.859185,61.2431714 276.824176,59.876599 276.81484,57.6891504 L276.812294,56.4145873 L276.919868,48.353167 L276.919868,37.9270633 C276.919868,32.8394114 276.453714,29.1132438 275.521405,26.7485605 C274.1588,23.237364 271.684596,20.5143954 268.098793,18.5796545 C264.87157,16.8598848 261.21405,16 257.126235,16 C253.181851,16 249.954629,16.6090851 247.444566,17.8272553 C244.934504,19.0454255 242.4603,21.159309 240.021954,24.168906 C236.723015,18.7229687 231.559458,16 224.531284,16 C221.088913,16 218.220271,16.5911708 215.925357,17.7735125 C213.630443,18.9558541 211.192097,21.087652 208.610318,24.168906 L208.610318,24.168906 L208.610318,21.0518234 C208.610318,18.9737684 207.749726,17.9347409 206.02854,17.9347409 L206.02854,17.9347409 L205.705818,17.9347409 L203.12404,18.2571977 L203.12404,18.2571977 L202.371021,18.2571977 C201.940724,18.3288548 201.546286,18.3646833 201.187706,18.3646833 C200.183681,18.3646833 199.000366,18.2930262 197.637761,18.1497121 C196.275156,18.006398 195.199415,17.9347409 194.410538,17.9347409 C191.470179,17.9347409 190,19.1529111 190,21.5892514 C190,23.8822777 191.326747,25.0287908 193.980241,25.0287908 C194.410538,25.0287908 194.984266,24.9571337 195.701427,24.8138196 C197.422613,24.4555342 198.426637,24.2763916 198.713502,24.2763916 C200.147823,24.2763916 201.026345,25.0287908 201.349067,26.5335893 C201.671789,28.0383877 201.83315,31.8362124 201.83315,37.9270633 L201.83315,37.9270633 L201.83315,54.3723608 L201.618002,60.4990403 C201.47457,64.0102367 200.434687,65.7658349 198.498353,65.7658349 C198.283205,65.7658349 198.139773,65.7300064 198.068057,65.6583493 L198.068057,65.6583493 L195.378705,65.1209213 C195.235273,65.1209213 195.020124,65.0850928 194.73326,65.0134357 L194.73326,65.0134357 L194.087816,65.0134357 C191.362605,65.0134357 190,66.1241203 190,68.3454894 C190,70.7818298 191.434321,72 194.302964,72 Z M316.626866,73 C324.302772,73 330.450604,70.3670412 335.070362,65.1011236 C339.690121,59.835206 342,52.8614232 342,44.1797753 C342,35.4981273 339.761194,28.6310861 335.283582,23.5786517 C330.80597,18.5262172 324.693674,16 316.946695,16 C309.341862,16 303.282871,18.579588 298.769723,23.738764 C294.256574,28.8979401 292,35.8183521 292,44.5 C292,53.1816479 294.238806,60.1020599 298.716418,65.261236 C303.19403,70.420412 309.164179,73 316.626866,73 Z M317.176471,66 C312.071895,66 308.099673,64.0924544 305.259804,60.2773632 C302.419935,56.462272 301,51.2031509 301,44.5 L301,44.5 L301,43.1094527 C301.287582,36.6915423 302.869281,31.7354892 305.745098,28.2412935 C308.620915,24.7470978 312.575163,23 317.607843,23 C328.535948,23 334,30.1310116 334,44.3930348 C334,51.1674959 332.50817,56.462272 329.52451,60.2773632 C326.54085,64.0924544 322.424837,66 317.176471,66 Z M375.059908,73 C381.701997,73 387.107527,70.758427 391.276498,66.2752809 C392.831029,64.6385768 394.173579,62.5749064 395.304147,60.0842697 C396.434716,57.593633 397,55.4588015 397,53.6797753 C397,52.4700375 396.611367,51.4737828 395.834101,50.6910112 C395.056836,49.9082397 394.067588,49.5168539 392.866359,49.5168539 C391.382488,49.5168539 390.25192,50.2284644 389.474654,51.6516854 C389.333333,52.0074906 388.90937,53.4307116 388.202765,55.9213483 C387.354839,59.0524345 385.782642,61.5074906 383.486175,63.2865169 C381.189708,65.0655431 378.486943,65.9550562 375.37788,65.9550562 C370.431644,65.9550562 366.56298,64.0514981 363.771889,60.244382 C360.980799,56.4372659 359.585253,51.1891386 359.585253,44.5 C359.585253,38.0243446 361.069124,32.829588 364.036866,28.9157303 C367.004608,25.0018727 370.926267,23.0449438 375.801843,23.0449438 C378.981567,23.0449438 381.578341,23.7565543 383.592166,25.1797753 C385.605991,26.6029963 386.789555,28.5599251 387.142857,31.0505618 C383.609831,31.4775281 381.843318,33.1142322 381.843318,35.9606742 C381.843318,37.5262172 382.426267,38.8426966 383.592166,39.9101124 C384.758065,40.9775281 386.22427,41.511236 387.990783,41.511236 C390.25192,41.511236 392.106759,40.6573034 393.5553,38.9494382 C395.00384,37.241573 395.728111,35.071161 395.728111,32.4382022 C395.728111,27.670412 393.855607,23.738764 390.110599,20.6432584 C386.365591,17.5477528 381.666667,16 376.013825,16 C368.453149,16 362.394009,18.6507491 357.836406,23.9522472 C353.278802,29.2537453 351,36.3164794 351,45.1404494 C351,53.4662921 353.208141,60.1910112 357.624424,65.3146067 C362.040707,70.4382022 367.852535,73 375.059908,73 Z" id="Tapmoc" fill="#000000" fill-rule="nonzero"></path>
    </g>
</svg>